<svg width="215" height="159" viewBox="0 0 215 159" fill="none" xmlns="http://www.w3.org/2000/svg">
<path d="M19.1282 87.7474C17.1283 89.1602 14.8286 86.4311 16.5601 84.6997L99.8455 1.41429C100.627 0.633237 101.893 0.633237 102.674 1.41429L115.585 14.3254C116.366 15.1065 116.366 16.3728 115.585 17.1539L24.5695 108.169C22.9619 109.777 20.345 107.883 21.3701 105.853L33.2134 82.409C34.1532 80.5488 31.9766 78.6712 30.2744 79.8737L19.1282 87.7474Z" fill="#FC5E56"/>
<path d="M125.041 86.0407C125.821 85.258 127.087 85.2554 127.87 86.0348L176.483 134.444C178.016 135.97 176.371 138.505 174.353 137.728L155.434 130.442C153.712 129.779 152.087 131.603 152.944 133.237L160.042 146.771C161.105 148.798 158.482 150.732 156.86 149.117L110.763 103.214C109.98 102.434 109.977 101.168 110.757 100.385L125.041 86.0407Z" fill="#FC5E56"/>
<path d="M27.5758 127.191C25.6232 125.238 25.6232 122.072 27.5758 120.12L101.58 46.1157L126.456 70.9921L52.4522 144.996C50.4996 146.949 47.3338 146.949 45.3812 144.996L27.5758 127.191Z" fill="#FC5E56"/>
<path d="M122.557 24.9365C124.506 22.9798 127.671 22.9731 129.628 24.9216L210.509 105.463C212.466 107.412 212.473 110.578 210.524 112.534L192.756 130.377C190.808 132.334 187.642 132.34 185.685 130.392L101.261 46.3222L122.557 24.9365Z" fill="#FC5E56"/>
</svg>
