<svg width="270" height="270" viewBox="0 0 270 270" fill="none" xmlns="http://www.w3.org/2000/svg">
<rect width="270" height="270" rx="40" fill="white"/>
<path d="M44.1282 146.747C42.1283 148.16 39.8286 145.431 41.5601 143.7L124.845 60.4143C125.627 59.6332 126.893 59.6332 127.674 60.4143L140.585 73.3254C141.366 74.1065 141.366 75.3728 140.585 76.1539L49.5695 167.169C47.9619 168.777 45.345 166.883 46.3701 164.853L58.2134 141.409C59.1532 139.549 56.9766 137.671 55.2744 138.874L44.1282 146.747Z" fill="#FC5E56"/>
<path d="M150.041 145.041C150.821 144.258 152.087 144.255 152.87 145.035L201.483 193.444C203.016 194.97 201.371 197.505 199.353 196.728L180.434 189.442C178.712 188.779 177.087 190.603 177.944 192.237L185.042 205.771C186.105 207.798 183.482 209.732 181.86 208.117L135.763 162.214C134.98 161.434 134.977 160.168 135.757 159.385L150.041 145.041Z" fill="#FC5E56"/>
<path d="M52.5758 186.191C50.6232 184.238 50.6232 181.072 52.5758 179.12L126.58 105.116L151.456 129.992L77.4522 203.996C75.4996 205.949 72.3338 205.949 70.3812 203.996L52.5758 186.191Z" fill="#FC5E56"/>
<path d="M147.557 83.9365C149.506 81.9798 152.671 81.9731 154.628 83.9216L235.509 164.463C237.466 166.412 237.473 169.578 235.524 171.534L217.756 189.377C215.808 191.334 212.642 191.34 210.685 189.392L126.261 105.322L147.557 83.9365Z" fill="#FC5E56"/>
</svg>
